<!DOCTYPE svg PUBLIC "-//W3C//DTD SVG 1.1//EN"
 "http://www.w3.org/Graphics/SVG/1.1/DTD/svg11.dtd">
<svg version="1.1"
 width="600px" height="78px"
 viewBox="0 0 600 78"
 xmlns="http://www.w3.org/2000/svg" shape-rendering="crispEdges"
 stroke-width="1" text-rendering="geometricPrecision">
<polygon fill="white" points="133,7 165,7 165,16 133,16"/>
<text x="150" y="16" textLength="31" font-family="Helvetica" font-size="12" fill="black" text-anchor="middle">

Client
</text>
<polygon fill="white" points="431,7 467,7 467,16 431,16"/>
<text x="450" y="16" textLength="35" font-family="Helvetica" font-size="12" fill="black" text-anchor="middle">

Server
</text>
<line x1="150" y1="22" x2="150" y2="50" stroke="black"/>
<line x1="450" y1="22" x2="450" y2="50" stroke="black"/>
<line x1="150" y1="33" x2="450" y2="33" stroke="black"/>
<line x1="450" y1="33" x2="440" y2="39" stroke="black"/>
<polygon fill="white" points="229,23 369,23 369,32 229,32"/>
<text x="230" y="32" textLength="138" font-family="Helvetica" font-size="12" fill="black">
InvalidMessageId, Id=Wat
</text>
<line x1="150" y1="50" x2="150" y2="78" stroke="black"/>
<line x1="450" y1="50" x2="450" y2="78" stroke="black"/>
<line x1="450" y1="61" x2="150" y2="61" stroke="black"/>
<line x1="150" y1="61" x2="160" y2="67" stroke="black"/>
<polygon fill="white" points="270,51 329,51 329,60 270,60"/>
<text x="271" y="60" textLength="57" font-family="Helvetica" font-size="12" fill="black">
Error, Id=0
</text>
<line x1="150" y1="72" x2="150" y2="78" stroke="black"/>
<line x1="450" y1="72" x2="450" y2="78" stroke="black"/>
</svg>
