<!DOCTYPE svg PUBLIC "-//W3C//DTD SVG 1.1//EN"
 "http://www.w3.org/Graphics/SVG/1.1/DTD/svg11.dtd">
<svg version="1.1"
 width="600px" height="106px"
 viewBox="0 0 600 106"
 xmlns="http://www.w3.org/2000/svg" shape-rendering="crispEdges"
 stroke-width="1" text-rendering="geometricPrecision">
<polygon fill="white" points="83,7 115,7 115,16 83,16"/>
<text x="100" y="16" textLength="31" font-family="Helvetica" font-size="12" fill="black" text-anchor="middle">

Client
</text>
<polygon fill="white" points="281,7 317,7 317,16 281,16"/>
<text x="300" y="16" textLength="35" font-family="Helvetica" font-size="12" fill="black" text-anchor="middle">

Server
</text>
<polygon fill="white" points="472,7 526,7 526,16 472,16"/>
<text x="500" y="16" textLength="52" font-family="Helvetica" font-size="12" fill="black" text-anchor="middle">

Hardware
</text>
<line x1="100" y1="22" x2="100" y2="50" stroke="black"/>
<line x1="300" y1="22" x2="300" y2="50" stroke="black"/>
<line x1="500" y1="22" x2="500" y2="50" stroke="black"/>
<line x1="100" y1="33" x2="300" y2="33" stroke="black"/>
<line x1="300" y1="33" x2="290" y2="39" stroke="black"/>
<polygon fill="white" points="158,23 240,23 240,32 158,32"/>
<text x="159" y="32" textLength="80" font-family="Helvetica" font-size="12" fill="black">
RawCmd, Id=1
</text>
<line x1="100" y1="50" x2="100" y2="78" stroke="black"/>
<line x1="300" y1="50" x2="300" y2="78" stroke="black"/>
<line x1="500" y1="50" x2="500" y2="78" stroke="black"/>
<line x1="300" y1="61" x2="500" y2="61" stroke="black"/>
<line x1="500" y1="61" x2="490" y2="67" stroke="black"/>
<polygon fill="white" points="330,51 468,51 468,60 330,60"/>
<text x="331" y="60" textLength="136" font-family="Helvetica" font-size="12" fill="black">
Byte Array from RawCmd
</text>
<line x1="100" y1="78" x2="100" y2="106" stroke="black"/>
<line x1="300" y1="78" x2="300" y2="106" stroke="black"/>
<line x1="500" y1="78" x2="500" y2="106" stroke="black"/>
<line x1="300" y1="89" x2="100" y2="89" stroke="black"/>
<line x1="100" y1="89" x2="110" y2="95" stroke="black"/>
<polygon fill="white" points="175,79 223,79 223,88 175,88"/>
<text x="176" y="88" textLength="46" font-family="Helvetica" font-size="12" fill="black">
Ok, Id=1
</text>
<line x1="100" y1="100" x2="100" y2="106" stroke="black"/>
<line x1="300" y1="100" x2="300" y2="106" stroke="black"/>
<line x1="500" y1="100" x2="500" y2="106" stroke="black"/>
</svg>
