<svg id="Layer_1" data-name="Layer 1" xmlns="http://www.w3.org/2000/svg" viewBox="0 0 290.56 293.08"><defs><style>.cls-1,.cls-3{fill:none;}.cls-1{stroke:#fff;stroke-miterlimit:10;}.cls-2{fill:#fff;}</style></defs><title>buttplug-logo-1</title><rect x="0.5" y="0.5" width="289.56" height="292.08" rx="32" ry="32"/><rect class="cls-1" x="0.5" y="0.5" width="289.56" height="292.08" rx="32" ry="32"/><rect class="cls-2" x="10.63" y="10.72" width="269.29" height="271.63" rx="25" ry="25"/><rect class="cls-1" x="10.63" y="10.72" width="269.29" height="271.63" rx="25" ry="25"/><rect x="17.37" y="17.51" width="255.83" height="258.05" rx="20" ry="20"/><rect class="cls-1" x="17.37" y="17.51" width="255.83" height="258.05" rx="20" ry="20"/><line class="cls-3" x1="156.1" y1="152.66" x2="142.44" y2="162.32"/><path class="cls-2" d="M325.32,383.36a3.07,3.07,0,0,1-1.71-5.64,107.76,107.76,0,0,1,14.2-9.47l2.32-1.36c2.57-1.54,5.24-3,7.83-4.36a95,95,0,0,0,13.73-8.38c1.9-1.49,2.33-6.94,2.59-10.2v-.12c.86-10.76,1-22.09-7.83-32-9.93-11.24-8.63-25.63-6.06-38.22,3-14.72,5.94-29.72,8.78-44.22,3.34-17.09,6.8-34.76,10.41-52.11,1.82-8.76,6.31-14.55,12.3-15.88a20.85,20.85,0,0,1,6.58,0c6,1.33,10.48,7.12,12.3,15.88,3.61,17.35,7.07,35,10.41,52.12,2.83,14.5,5.77,29.49,8.78,44.21,2.58,12.59,3.87,27-6.06,38.22-8.79,10-8.69,21.29-7.83,32v.12c.26,3.26.69,8.71,2.6,10.2a95.08,95.08,0,0,0,13.73,8.38c2.58,1.39,5.26,2.82,7.83,4.36l2.32,1.36a108,108,0,0,1,14.2,9.47,3.07,3.07,0,0,1-1.81,5.64H325.32Zm2.69-4H442.34a109.85,109.85,0,0,0-11.81-7.65l-2.37-1.39c-2.48-1.49-5.11-2.9-7.66-4.26a98.21,98.21,0,0,1-14.31-8.76c-3.28-2.57-3.75-8.37-4.12-13v-.12c-.93-11.61-1-23.88,8.83-35,8.74-9.9,7.63-22.56,5.14-34.77-3-14.73-5.95-29.74-8.79-44.25-3.34-17.08-6.79-34.75-10.4-52.07-1.49-7.15-4.86-11.81-9.25-12.79a9.39,9.39,0,0,0-2.27-.17H385a9.32,9.32,0,0,0-2.27.17c-4.39,1-7.76,5.64-9.25,12.79-3.61,17.32-7.06,35-10.4,52.06-2.84,14.51-5.77,29.52-8.79,44.25-2.5,12.21-3.61,24.87,5.14,34.77,9.83,11.13,9.75,23.4,8.82,35v.12c-.37,4.66-.83,10.46-4.12,13a98.14,98.14,0,0,1-14.31,8.76c-2.54,1.36-5.17,2.77-7.66,4.26l-2.37,1.39A109.88,109.88,0,0,0,328,379.35Z" transform="translate(-239.9 -125.68)"/></svg>
